<svg xmlns="http://www.w3.org/2000/svg" xmlns:xlink="http://www.w3.org/1999/xlink" width="500" zoomAndPan="magnify" viewBox="0 0 375 374.999991" height="500" preserveAspectRatio="xMidYMid meet" version="1.0"><defs><g/><clipPath id="4313704c96"><path d="M 119.550781 70.101562 L 258.300781 70.101562 L 258.300781 208.847656 L 119.550781 208.847656 Z M 119.550781 70.101562 " clip-rule="nonzero"/></clipPath><clipPath id="59a4a0d4b2"><path d="M 145.117188 99.148438 L 232.867188 99.148438 L 232.867188 191.398438 L 145.117188 191.398438 Z M 145.117188 99.148438 " clip-rule="nonzero"/></clipPath></defs><rect x="-37.5" width="450" fill="#ffffff" y="-37.499999" height="449.999989" fill-opacity="1"/><rect x="-37.5" width="450" fill="#ffffff" y="-37.499999" height="449.999989" fill-opacity="1"/><rect x="-37.5" width="450" fill="#ffeccf" y="-37.499999" height="449.999989" fill-opacity="1"/><g clip-path="url(#4313704c96)"><path fill="#ff914d" d="M 188.925781 70.101562 C 150.613281 70.101562 119.550781 101.160156 119.550781 139.472656 C 119.550781 177.789062 150.613281 208.847656 188.925781 208.847656 C 227.242188 208.847656 258.300781 177.789062 258.300781 139.472656 C 258.300781 101.160156 227.242188 70.101562 188.925781 70.101562 " fill-opacity="1" fill-rule="nonzero"/></g><g clip-path="url(#59a4a0d4b2)"><path fill="#ffffff" d="M 196.898438 103.160156 C 196.898438 103.160156 196.171875 110.195312 183.523438 110.425781 C 170.875 110.652344 165.996094 99.148438 165.996094 99.148438 L 145.269531 99.148438 L 155.445312 169.644531 C 155.445312 169.644531 162.378906 162.761719 165.996094 169.644531 C 170.265625 177.863281 162.757812 181.992188 162.757812 181.992188 L 168.398438 191.398438 L 228.863281 186.234375 L 232.710938 110.425781 Z M 164.96875 118.1875 C 163.75 122.46875 161.425781 125.679688 154.492188 124.953125 C 147.558594 124.226562 150.109375 113.253906 150.375 111.839844 C 150.644531 110.425781 153.917969 104.957031 159.023438 105.953125 C 164.625 107.0625 166.226562 113.902344 164.96875 118.1875 Z M 196.933594 182.832031 C 196.285156 185.011719 195.144531 186.65625 191.601562 186.3125 C 188.058594 185.96875 189.390625 180.347656 189.503906 179.621094 C 189.621094 178.894531 191.332031 176.105469 193.886719 176.601562 C 196.78125 177.136719 197.582031 180.652344 196.933594 182.832031 Z M 214.6875 134.703125 C 214.535156 137.53125 215.566406 149.609375 205.355469 150.71875 C 195.144531 151.828125 192.933594 142.84375 193.199219 139.863281 C 193.46875 136.878906 196.933594 126.519531 207.71875 126.789062 C 211.375 126.863281 214.84375 131.871094 214.6875 134.703125 Z M 214.6875 134.703125 " fill-opacity="1" fill-rule="nonzero"/></g><g fill="#000000" fill-opacity="1"><g transform="translate(72.939961, 305.76529)"><g><path d="M 0.03125 -13.1875 L 8.953125 -13.1875 L 8.953125 -11.75 L 5.265625 -11.8125 L 5.296875 0 L 3.71875 0 L 3.765625 -11.8125 L 0.03125 -11.75 Z M 0.03125 -13.1875 "/></g></g></g><g fill="#000000" fill-opacity="1"><g transform="translate(81.936183, 305.76529)"><g><path d="M 2 0 L 2 -13.1875 L 3.59375 -13.1875 L 3.53125 -7.421875 L 9.09375 -7.421875 L 9.0625 -13.1875 L 10.625 -13.1875 L 10.625 0 L 9.0625 0 L 9.109375 -6.015625 L 3.53125 -6.015625 L 3.59375 0 Z M 2 0 "/></g></g></g><g fill="#000000" fill-opacity="1"><g transform="translate(94.557457, 305.76529)"><g><path d="M 2 0 L 2 -13.1875 L 8.46875 -13.1875 L 8.46875 -11.765625 L 3.59375 -11.828125 L 3.5 -7.390625 L 8.015625 -7.390625 L 8.015625 -6.03125 L 3.5 -6.03125 L 3.59375 -1.390625 L 8.46875 -1.421875 L 8.46875 0 Z M 2 0 "/></g></g></g><g fill="#000000" fill-opacity="1"><g transform="translate(104.312852, 305.76529)"><g/></g></g><g fill="#000000" fill-opacity="1"><g transform="translate(108.58321, 305.76529)"><g><path d="M 6.375 -12 C 5.113281 -12 4.34375 -11.828125 4.0625 -11.484375 C 3.414062 -10.703125 3.09375 -9.003906 3.09375 -6.390625 C 3.09375 -5.148438 3.207031 -4.109375 3.4375 -3.265625 C 3.675781 -2.429688 3.953125 -1.859375 4.265625 -1.546875 C 4.578125 -1.242188 5.039062 -1.09375 5.65625 -1.09375 C 6.28125 -1.09375 6.894531 -1.179688 7.5 -1.359375 C 8.113281 -1.535156 8.585938 -1.710938 8.921875 -1.890625 L 9.4375 -2.171875 L 9.984375 -0.90625 C 9.859375 -0.820312 9.679688 -0.71875 9.453125 -0.59375 C 9.234375 -0.46875 8.769531 -0.296875 8.0625 -0.078125 C 7.351562 0.140625 6.640625 0.25 5.921875 0.25 C 2.878906 0.25 1.359375 -1.984375 1.359375 -6.453125 C 1.359375 -9.617188 2.019531 -11.679688 3.34375 -12.640625 C 3.757812 -12.941406 4.195312 -13.148438 4.65625 -13.265625 C 5.125 -13.378906 5.828125 -13.4375 6.765625 -13.4375 C 7.710938 -13.4375 8.601562 -13.335938 9.4375 -13.140625 L 9.25 -11.765625 C 8.082031 -11.921875 7.125 -12 6.375 -12 Z M 6.375 -12 "/></g></g></g><g fill="#000000" fill-opacity="1"><g transform="translate(119.648178, 305.76529)"><g><path d="M 2 0 L 2 -13.1875 L 3.59375 -13.1875 L 3.53125 -7.421875 L 9.09375 -7.421875 L 9.0625 -13.1875 L 10.625 -13.1875 L 10.625 0 L 9.0625 0 L 9.109375 -6.015625 L 3.53125 -6.015625 L 3.59375 0 Z M 2 0 "/></g></g></g><g fill="#000000" fill-opacity="1"><g transform="translate(132.269453, 305.76529)"><g><path d="M 2 0 L 2 -13.1875 L 8.46875 -13.1875 L 8.46875 -11.765625 L 3.59375 -11.828125 L 3.5 -7.390625 L 8.015625 -7.390625 L 8.015625 -6.03125 L 3.5 -6.03125 L 3.59375 -1.390625 L 8.46875 -1.421875 L 8.46875 0 Z M 2 0 "/></g></g></g><g fill="#000000" fill-opacity="1"><g transform="translate(142.024848, 305.76529)"><g><path d="M 2 0 L 2 -13.1875 L 8.46875 -13.1875 L 8.46875 -11.765625 L 3.59375 -11.828125 L 3.5 -7.390625 L 8.015625 -7.390625 L 8.015625 -6.03125 L 3.5 -6.03125 L 3.59375 -1.390625 L 8.46875 -1.421875 L 8.46875 0 Z M 2 0 "/></g></g></g><g fill="#000000" fill-opacity="1"><g transform="translate(151.780242, 305.76529)"><g><path d="M 0.6875 -0.96875 L 1.25 -2.265625 C 1.75 -1.992188 2.359375 -1.75 3.078125 -1.53125 C 3.804688 -1.320312 4.441406 -1.21875 4.984375 -1.21875 C 5.523438 -1.21875 5.925781 -1.300781 6.1875 -1.46875 C 6.71875 -1.832031 6.984375 -2.472656 6.984375 -3.390625 C 6.984375 -4.035156 6.789062 -4.546875 6.40625 -4.921875 C 6.019531 -5.304688 5.535156 -5.625 4.953125 -5.875 C 4.367188 -6.125 3.976562 -6.289062 3.78125 -6.375 C 3.59375 -6.457031 3.3125 -6.59375 2.9375 -6.78125 C 2.570312 -6.976562 2.3125 -7.160156 2.15625 -7.328125 C 2 -7.503906 1.820312 -7.71875 1.625 -7.96875 C 1.269531 -8.4375 1.09375 -9.140625 1.09375 -10.078125 C 1.09375 -11.015625 1.429688 -11.804688 2.109375 -12.453125 C 2.785156 -13.109375 3.753906 -13.4375 5.015625 -13.4375 C 5.984375 -13.4375 7.015625 -13.296875 8.109375 -13.015625 L 7.84375 -11.65625 C 6.78125 -11.882812 5.851562 -12 5.0625 -12 C 4.269531 -12 3.734375 -11.914062 3.453125 -11.75 C 2.992188 -11.5 2.765625 -10.957031 2.765625 -10.125 C 2.765625 -9.5625 2.953125 -9.070312 3.328125 -8.65625 C 3.585938 -8.363281 4.046875 -8.070312 4.703125 -7.78125 C 4.867188 -7.707031 5.171875 -7.582031 5.609375 -7.40625 C 6.046875 -7.226562 6.410156 -7.054688 6.703125 -6.890625 C 6.992188 -6.722656 7.300781 -6.492188 7.625 -6.203125 C 8.300781 -5.617188 8.640625 -4.75 8.640625 -3.59375 C 8.640625 -2.445312 8.269531 -1.519531 7.53125 -0.8125 C 6.800781 -0.101562 5.847656 0.25 4.671875 0.25 C 4.046875 0.25 3.398438 0.148438 2.734375 -0.046875 C 2.078125 -0.253906 1.570312 -0.460938 1.21875 -0.671875 Z M 0.6875 -0.96875 "/></g></g></g><g fill="#000000" fill-opacity="1"><g transform="translate(161.478703, 305.76529)"><g><path d="M 3.515625 -7.359375 L 3.609375 0 L 2 0.015625 L 2.0625 -6.03125 L 2 -13.1875 L 3.609375 -13.1875 Z M 3.515625 -7.359375 "/></g></g></g><g fill="#000000" fill-opacity="1"><g transform="translate(167.07762, 305.76529)"><g><path d="M 2 0 L 2 -13.1875 L 8.46875 -13.1875 L 8.46875 -11.765625 L 3.59375 -11.828125 L 3.5 -7.390625 L 8.015625 -7.390625 L 8.015625 -6.03125 L 3.5 -6.03125 L 3.59375 -1.390625 L 8.46875 -1.421875 L 8.46875 0 Z M 2 0 "/></g></g></g><g fill="#000000" fill-opacity="1"><g transform="translate(176.833014, 305.76529)"><g><path d="M 0.6875 -0.96875 L 1.25 -2.265625 C 1.75 -1.992188 2.359375 -1.75 3.078125 -1.53125 C 3.804688 -1.320312 4.441406 -1.21875 4.984375 -1.21875 C 5.523438 -1.21875 5.925781 -1.300781 6.1875 -1.46875 C 6.71875 -1.832031 6.984375 -2.472656 6.984375 -3.390625 C 6.984375 -4.035156 6.789062 -4.546875 6.40625 -4.921875 C 6.019531 -5.304688 5.535156 -5.625 4.953125 -5.875 C 4.367188 -6.125 3.976562 -6.289062 3.78125 -6.375 C 3.59375 -6.457031 3.3125 -6.59375 2.9375 -6.78125 C 2.570312 -6.976562 2.3125 -7.160156 2.15625 -7.328125 C 2 -7.503906 1.820312 -7.71875 1.625 -7.96875 C 1.269531 -8.4375 1.09375 -9.140625 1.09375 -10.078125 C 1.09375 -11.015625 1.429688 -11.804688 2.109375 -12.453125 C 2.785156 -13.109375 3.753906 -13.4375 5.015625 -13.4375 C 5.984375 -13.4375 7.015625 -13.296875 8.109375 -13.015625 L 7.84375 -11.65625 C 6.78125 -11.882812 5.851562 -12 5.0625 -12 C 4.269531 -12 3.734375 -11.914062 3.453125 -11.75 C 2.992188 -11.5 2.765625 -10.957031 2.765625 -10.125 C 2.765625 -9.5625 2.953125 -9.070312 3.328125 -8.65625 C 3.585938 -8.363281 4.046875 -8.070312 4.703125 -7.78125 C 4.867188 -7.707031 5.171875 -7.582031 5.609375 -7.40625 C 6.046875 -7.226562 6.410156 -7.054688 6.703125 -6.890625 C 6.992188 -6.722656 7.300781 -6.492188 7.625 -6.203125 C 8.300781 -5.617188 8.640625 -4.75 8.640625 -3.59375 C 8.640625 -2.445312 8.269531 -1.519531 7.53125 -0.8125 C 6.800781 -0.101562 5.847656 0.25 4.671875 0.25 C 4.046875 0.25 3.398438 0.148438 2.734375 -0.046875 C 2.078125 -0.253906 1.570312 -0.460938 1.21875 -0.671875 Z M 0.6875 -0.96875 "/></g></g></g><g fill="#000000" fill-opacity="1"><g transform="translate(186.531475, 305.76529)"><g><path d="M 0.03125 -13.1875 L 8.953125 -13.1875 L 8.953125 -11.75 L 5.265625 -11.8125 L 5.296875 0 L 3.71875 0 L 3.765625 -11.8125 L 0.03125 -11.75 Z M 0.03125 -13.1875 "/></g></g></g><g fill="#000000" fill-opacity="1"><g transform="translate(195.527697, 305.76529)"><g/></g></g><g fill="#000000" fill-opacity="1"><g transform="translate(199.798055, 305.76529)"><g><path d="M 3.59375 0 L 2 0 L 2.0625 -6.109375 L 2 -13.171875 C 3.550781 -13.347656 4.945312 -13.4375 6.1875 -13.4375 C 8.664062 -13.4375 9.90625 -11.960938 9.90625 -9.015625 C 9.90625 -5.929688 8.59375 -4.390625 5.96875 -4.390625 L 3.59375 -4.5 Z M 3.59375 -5.96875 C 4.488281 -5.8125 5.332031 -5.734375 6.125 -5.734375 C 6.914062 -5.734375 7.429688 -5.851562 7.671875 -6.09375 C 8.035156 -6.46875 8.21875 -7.457031 8.21875 -9.0625 C 8.21875 -10.675781 8.003906 -11.628906 7.578125 -11.921875 C 7.285156 -12.117188 6.710938 -12.21875 5.859375 -12.21875 C 5.015625 -12.21875 4.257812 -12.148438 3.59375 -12.015625 Z M 3.59375 -5.96875 "/></g></g></g><g fill="#000000" fill-opacity="1"><g transform="translate(210.825063, 305.76529)"><g><path d="M 2 0 L 2 -13.1875 L 3.59375 -13.1875 L 3.5 -1.421875 L 8.265625 -1.46875 L 8.265625 0 Z M 2 0 "/></g></g></g><g fill="#000000" fill-opacity="1"><g transform="translate(219.289859, 305.76529)"><g><path d="M 1.78125 0 L 0.09375 0 L 3.8125 -13.1875 L 5.8125 -13.1875 L 9.53125 0 L 7.828125 0 L 6.90625 -3.53125 L 2.71875 -3.53125 Z M 6.609375 -4.859375 L 4.859375 -11.90625 L 4.75 -11.90625 L 3 -4.859375 Z M 6.609375 -4.859375 "/></g></g></g><g fill="#000000" fill-opacity="1"><g transform="translate(229.064229, 305.76529)"><g><path d="M 6.375 -12 C 5.113281 -12 4.34375 -11.828125 4.0625 -11.484375 C 3.414062 -10.703125 3.09375 -9.003906 3.09375 -6.390625 C 3.09375 -5.148438 3.207031 -4.109375 3.4375 -3.265625 C 3.675781 -2.429688 3.953125 -1.859375 4.265625 -1.546875 C 4.578125 -1.242188 5.039062 -1.09375 5.65625 -1.09375 C 6.28125 -1.09375 6.894531 -1.179688 7.5 -1.359375 C 8.113281 -1.535156 8.585938 -1.710938 8.921875 -1.890625 L 9.4375 -2.171875 L 9.984375 -0.90625 C 9.859375 -0.820312 9.679688 -0.71875 9.453125 -0.59375 C 9.234375 -0.46875 8.769531 -0.296875 8.0625 -0.078125 C 7.351562 0.140625 6.640625 0.25 5.921875 0.25 C 2.878906 0.25 1.359375 -1.984375 1.359375 -6.453125 C 1.359375 -9.617188 2.019531 -11.679688 3.34375 -12.640625 C 3.757812 -12.941406 4.195312 -13.148438 4.65625 -13.265625 C 5.125 -13.378906 5.828125 -13.4375 6.765625 -13.4375 C 7.710938 -13.4375 8.601562 -13.335938 9.4375 -13.140625 L 9.25 -11.765625 C 8.082031 -11.921875 7.125 -12 6.375 -12 Z M 6.375 -12 "/></g></g></g><g fill="#000000" fill-opacity="1"><g transform="translate(240.129197, 305.76529)"><g><path d="M 2 0 L 2 -13.1875 L 8.46875 -13.1875 L 8.46875 -11.765625 L 3.59375 -11.828125 L 3.5 -7.390625 L 8.015625 -7.390625 L 8.015625 -6.03125 L 3.5 -6.03125 L 3.59375 -1.390625 L 8.46875 -1.421875 L 8.46875 0 Z M 2 0 "/></g></g></g><g fill="#000000" fill-opacity="1"><g transform="translate(249.884592, 305.76529)"><g/></g></g><g fill="#000000" fill-opacity="1"><g transform="translate(254.15496, 305.76529)"><g><path d="M 3.515625 -7.359375 L 3.609375 0 L 2 0.015625 L 2.0625 -6.03125 L 2 -13.1875 L 3.609375 -13.1875 Z M 3.515625 -7.359375 "/></g></g></g><g fill="#000000" fill-opacity="1"><g transform="translate(259.753877, 305.76529)"><g><path d="M 2 -13.1875 L 4.21875 -13.1875 L 9.484375 -1.5 L 9.59375 -1.5 L 9.296875 -13.1875 L 10.859375 -13.1875 L 10.859375 0 L 8.640625 0 L 3.375 -11.6875 L 3.296875 -11.6875 L 3.546875 0 L 2 0 Z M 2 -13.1875 "/></g></g></g><g fill="#000000" fill-opacity="1"><g transform="translate(272.602899, 305.76529)"><g/></g></g><g fill="#000000" fill-opacity="1"><g transform="translate(276.873257, 305.76529)"><g><path d="M 0.03125 -13.1875 L 8.953125 -13.1875 L 8.953125 -11.75 L 5.265625 -11.8125 L 5.296875 0 L 3.71875 0 L 3.765625 -11.8125 L 0.03125 -11.75 Z M 0.03125 -13.1875 "/></g></g></g><g fill="#000000" fill-opacity="1"><g transform="translate(285.869468, 305.76529)"><g><path d="M 8.125 -0.046875 C 7.582031 0.148438 6.945312 0.25 6.21875 0.25 C 5.5 0.25 4.867188 0.148438 4.328125 -0.046875 C 3.785156 -0.253906 3.28125 -0.601562 2.8125 -1.09375 C 1.84375 -2.09375 1.359375 -3.9375 1.359375 -6.625 C 1.359375 -9.289062 1.84375 -11.117188 2.8125 -12.109375 C 3.28125 -12.585938 3.785156 -12.925781 4.328125 -13.125 C 4.867188 -13.332031 5.5 -13.4375 6.21875 -13.4375 C 6.945312 -13.4375 7.582031 -13.332031 8.125 -13.125 C 8.664062 -12.925781 9.171875 -12.585938 9.640625 -12.109375 C 10.609375 -11.117188 11.09375 -9.289062 11.09375 -6.625 C 11.09375 -3.9375 10.609375 -2.09375 9.640625 -1.09375 C 9.171875 -0.601562 8.664062 -0.253906 8.125 -0.046875 Z M 4.390625 -11.640625 C 3.972656 -11.398438 3.648438 -10.882812 3.421875 -10.09375 C 3.191406 -9.300781 3.078125 -8.21875 3.078125 -6.84375 C 3.078125 -5.476562 3.132812 -4.441406 3.25 -3.734375 C 3.363281 -3.023438 3.5625 -2.484375 3.84375 -2.109375 C 4.125 -1.742188 4.441406 -1.503906 4.796875 -1.390625 C 5.148438 -1.273438 5.675781 -1.21875 6.375 -1.21875 C 7.070312 -1.21875 7.628906 -1.332031 8.046875 -1.5625 C 8.941406 -2.050781 9.390625 -3.71875 9.390625 -6.5625 C 9.390625 -9.4375 8.945312 -11.128906 8.0625 -11.640625 C 7.644531 -11.878906 7.03125 -12 6.21875 -12 C 5.414062 -12 4.804688 -11.878906 4.390625 -11.640625 Z M 4.390625 -11.640625 "/></g></g></g><g fill="#000000" fill-opacity="1"><g transform="translate(298.319918, 305.76529)"><g><path d="M 5.921875 -10 L 8.09375 -10 L 10.265625 -1.40625 L 10.390625 -1.40625 L 11.75 -13.1875 L 13.390625 -13.1875 L 11.453125 0 L 9.28125 0 L 7.0625 -8.640625 L 6.96875 -8.640625 L 4.78125 0 L 2.5 0 L 0.625 -13.1875 L 2.265625 -13.1875 L 3.640625 -1.40625 L 3.734375 -1.40625 Z M 5.921875 -10 "/></g></g></g><g fill="#000000" fill-opacity="1"><g transform="translate(312.516495, 305.76529)"><g><path d="M 2 -13.1875 L 4.21875 -13.1875 L 9.484375 -1.5 L 9.59375 -1.5 L 9.296875 -13.1875 L 10.859375 -13.1875 L 10.859375 0 L 8.640625 0 L 3.375 -11.6875 L 3.296875 -11.6875 L 3.546875 0 L 2 0 Z M 2 -13.1875 "/></g></g></g><g fill="#000000" fill-opacity="1"><g transform="translate(116.25902, 268.316819)"><g><path d="M 16.96875 0.90625 C 11.3125 0.90625 7.410156 -0.6875 5.265625 -3.875 C 3.117188 -7.0625 2.046875 -12.8125 2.046875 -21.125 C 2.046875 -27.164062 2.519531 -31.800781 3.46875 -35.03125 C 4.414062 -38.257812 5.925781 -40.515625 8 -41.796875 C 10.070312 -43.085938 13.003906 -43.734375 16.796875 -43.734375 C 20.597656 -43.734375 23.523438 -43.222656 25.578125 -42.203125 C 26.410156 -41.785156 26.828125 -41.21875 26.828125 -40.5 C 26.828125 -40.269531 26.644531 -39.625 26.28125 -38.5625 C 25.925781 -37.5 25.585938 -36.773438 25.265625 -36.390625 C 24.941406 -36.015625 24.585938 -35.828125 24.203125 -35.828125 C 23.828125 -35.828125 22.773438 -35.976562 21.046875 -36.28125 C 19.316406 -36.582031 17.84375 -36.734375 16.625 -36.734375 C 15.414062 -36.734375 14.546875 -36.617188 14.015625 -36.390625 C 13.484375 -36.160156 13.046875 -35.734375 12.703125 -35.109375 C 12.359375 -34.484375 12.082031 -33.816406 11.875 -33.109375 C 11.664062 -32.410156 11.503906 -31.398438 11.390625 -30.078125 C 11.234375 -28.285156 11.15625 -24.757812 11.15625 -19.5 C 11.15625 -14.25 11.46875 -10.710938 12.09375 -8.890625 C 12.726562 -7.066406 14.179688 -6.15625 16.453125 -6.15625 L 21.125 -6.4375 L 21.125 -18.84375 C 21.164062 -19.601562 21.421875 -20.109375 21.890625 -20.359375 C 22.367188 -20.609375 23.210938 -20.738281 24.421875 -20.75 C 25.640625 -20.769531 26.550781 -20.617188 27.15625 -20.296875 C 27.769531 -19.972656 28.113281 -19.320312 28.1875 -18.34375 L 29.15625 -7.171875 L 29.15625 0 C 24.332031 0.601562 20.269531 0.90625 16.96875 0.90625 Z M 16.96875 0.90625 "/></g></g></g><g fill="#000000" fill-opacity="1"><g transform="translate(147.408413, 268.316819)"><g><path d="M 2.109375 -21.125 C 2.109375 -27.164062 2.582031 -31.800781 3.53125 -35.03125 C 4.476562 -38.257812 5.984375 -40.515625 8.046875 -41.796875 C 10.117188 -43.085938 13.109375 -43.734375 17.015625 -43.734375 C 20.929688 -43.734375 23.925781 -43.085938 26 -41.796875 C 28.070312 -40.515625 29.570312 -38.265625 30.5 -35.046875 C 31.425781 -31.835938 31.890625 -27.195312 31.890625 -21.125 C 31.890625 -12.8125 30.828125 -7.0625 28.703125 -3.875 C 26.578125 -0.6875 22.6875 0.90625 17.03125 0.90625 C 11.375 0.90625 7.472656 -0.6875 5.328125 -3.875 C 3.179688 -7.0625 2.109375 -12.8125 2.109375 -21.125 Z M 11.609375 -31.75 C 11.390625 -30.320312 11.257812 -28.878906 11.21875 -27.421875 C 11.175781 -25.960938 11.15625 -23.484375 11.15625 -19.984375 C 11.15625 -16.492188 11.269531 -13.570312 11.5 -11.21875 C 11.726562 -8.863281 12.03125 -7.316406 12.40625 -6.578125 C 12.789062 -5.835938 13.304688 -5.46875 13.953125 -5.46875 C 17.296875 -5.46875 19.476562 -5.8125 20.5 -6.5 C 20.882812 -6.757812 21.253906 -7.191406 21.609375 -7.796875 C 21.972656 -8.410156 22.226562 -9.039062 22.375 -9.6875 C 22.53125 -10.332031 22.664062 -11.28125 22.78125 -12.53125 C 22.9375 -14.164062 23.015625 -17.097656 23.015625 -21.328125 C 23.015625 -25.554688 22.90625 -28.894531 22.6875 -31.34375 C 22.476562 -33.800781 22.175781 -35.472656 21.78125 -36.359375 C 21.382812 -37.253906 20.863281 -37.703125 20.21875 -37.703125 C 18.695312 -37.703125 17.472656 -37.632812 16.546875 -37.5 C 15.617188 -37.363281 14.789062 -37.039062 14.0625 -36.53125 C 13.34375 -36.019531 12.8125 -35.453125 12.46875 -34.828125 C 12.125 -34.203125 11.835938 -33.175781 11.609375 -31.75 Z M 11.609375 -31.75 "/></g></g></g><g fill="#000000" fill-opacity="1"><g transform="translate(181.405095, 268.316819)"><g><path d="M 20.90625 -41.125 C 20.90625 -42.1875 21.128906 -42.882812 21.578125 -43.21875 C 22.035156 -43.5625 22.984375 -43.734375 24.421875 -43.734375 C 25.867188 -43.734375 26.867188 -43.503906 27.421875 -43.046875 C 27.972656 -42.597656 28.269531 -41.5 28.3125 -39.75 L 28.984375 -24.4375 C 28.984375 -23.863281 28.984375 -23.289062 28.984375 -22.71875 C 28.984375 -16.832031 28.59375 -12.160156 27.8125 -8.703125 C 27.039062 -5.253906 25.710938 -2.789062 23.828125 -1.3125 C 21.953125 0.164062 19.269531 0.90625 15.78125 0.90625 C 10.6875 0.90625 7.171875 -0.6875 5.234375 -3.875 C 3.296875 -7.0625 2.328125 -12.796875 2.328125 -21.078125 L 2.328125 -39.875 C 2.328125 -41.5 2.566406 -42.546875 3.046875 -43.015625 C 3.523438 -43.492188 4.503906 -43.734375 5.984375 -43.734375 C 7.460938 -43.734375 8.46875 -43.476562 9 -42.96875 C 9.53125 -42.457031 9.832031 -41.234375 9.90625 -39.296875 L 10.703125 -24.546875 C 10.703125 -14.941406 11.082031 -9.226562 11.84375 -7.40625 C 12.144531 -6.601562 12.582031 -6.203125 13.15625 -6.203125 C 14.488281 -6.203125 15.515625 -6.226562 16.234375 -6.28125 C 16.953125 -6.34375 17.648438 -6.570312 18.328125 -6.96875 C 19.015625 -7.375 19.488281 -7.84375 19.75 -8.375 C 20.019531 -8.90625 20.269531 -9.796875 20.5 -11.046875 C 20.769531 -12.796875 20.90625 -16.140625 20.90625 -21.078125 Z M 20.90625 -41.125 "/></g></g></g><g fill="#000000" fill-opacity="1"><g transform="translate(212.725324, 268.316819)"><g><path d="M 15.03125 -43.734375 C 19.175781 -43.734375 22.3125 -43.144531 24.4375 -41.96875 C 26.5625 -40.789062 28.097656 -38.65625 29.046875 -35.5625 C 29.992188 -32.46875 30.46875 -27.882812 30.46875 -21.8125 C 30.46875 -13.382812 29.363281 -7.488281 27.15625 -4.125 C 24.957031 -0.769531 20.914062 0.90625 15.03125 0.90625 C 13.59375 0.90625 9.4375 0.601562 2.5625 0 L 2.5625 -42.765625 C 8.332031 -43.410156 12.488281 -43.734375 15.03125 -43.734375 Z M 18.046875 -36.96875 C 14.742188 -36.96875 12.675781 -36.898438 11.84375 -36.765625 C 11.007812 -36.628906 10.59375 -36.257812 10.59375 -35.65625 L 10.59375 -7.0625 C 10.59375 -6.644531 10.847656 -6.394531 11.359375 -6.3125 C 11.867188 -6.238281 12.910156 -6.203125 14.484375 -6.203125 C 16.066406 -6.203125 17.179688 -6.285156 17.828125 -6.453125 C 18.472656 -6.628906 19.070312 -6.9375 19.625 -7.375 C 20.175781 -7.8125 20.546875 -8.65625 20.734375 -9.90625 C 21.109375 -12.34375 21.296875 -16.101562 21.296875 -21.1875 C 21.296875 -31.707031 20.210938 -36.96875 18.046875 -36.96875 Z M 18.046875 -36.96875 "/></g></g></g><g fill="#000000" fill-opacity="1"><g transform="translate(245.241424, 268.316819)"><g><path d="M 16.96875 -43.796875 C 19.59375 -43.796875 21.019531 -43.207031 21.25 -42.03125 L 25.109375 -24.546875 L 29.046875 -1.25 C 29.117188 -0.875 29.15625 -0.523438 29.15625 -0.203125 C 29.15625 0.117188 29.0625 0.382812 28.875 0.59375 C 28.6875 0.800781 28.039062 0.90625 26.9375 0.90625 C 23.5625 0.90625 21.757812 0.1875 21.53125 -1.25 L 19.53125 -12.984375 L 11.5625 -12.984375 L 9.796875 -1.203125 C 9.679688 -0.398438 9.535156 0.128906 9.359375 0.390625 C 9.191406 0.660156 8.957031 0.8125 8.65625 0.84375 C 8.351562 0.882812 7.859375 0.90625 7.171875 0.90625 L 5.578125 0.90625 C 4.253906 0.90625 3.421875 0.832031 3.078125 0.6875 C 2.242188 0.382812 1.769531 0.0390625 1.65625 -0.34375 C 1.613281 -0.53125 1.59375 -0.695312 1.59375 -0.84375 C 1.59375 -1 1.988281 -3.503906 2.78125 -8.359375 C 3.582031 -13.222656 4.5625 -19.015625 5.71875 -25.734375 C 6.875 -32.460938 7.632812 -36.867188 8 -38.953125 C 8.363281 -41.046875 8.5625 -42.222656 8.59375 -42.484375 C 8.75 -43.359375 11.539062 -43.796875 16.96875 -43.796875 Z M 15.265625 -36.34375 L 12.640625 -19.875 L 18.28125 -19.875 Z M 15.265625 -36.34375 "/></g></g></g></svg>